# Blender v2.81 (sub 16) OBJ File: 'PoolCue.blend'
# www.blender.org
mtllib PoolCue.mtl
o Cylinder
v -0.000000 -0.700000 -0.014414
v 0.000000 0.700000 -0.007000
v 0.005516 -0.700000 -0.013317
v 0.002679 0.700000 -0.006467
v 0.010193 -0.700000 -0.010193
v 0.004950 0.700000 -0.004950
v 0.013317 -0.700000 -0.005516
v 0.006467 0.700000 -0.002679
v 0.014414 -0.700000 0.000000
v 0.007000 0.700000 0.000000
v 0.013317 -0.700000 0.005516
v 0.006467 0.700000 0.002679
v 0.010193 -0.700000 0.010193
v 0.004950 0.700000 0.004950
v 0.005516 -0.700000 0.013317
v 0.002679 0.700000 0.006467
v 0.000000 -0.700000 0.014414
v 0.000000 0.700000 0.007000
v -0.005516 -0.700000 0.013317
v -0.002679 0.700000 0.006467
v -0.010193 -0.700000 0.010193
v -0.004950 0.700000 0.004950
v -0.013317 -0.700000 0.005516
v -0.006467 0.700000 0.002679
v -0.014414 -0.700000 -0.000000
v -0.007000 0.700000 -0.000000
v -0.013317 -0.700000 -0.005516
v -0.006467 0.700000 -0.002679
v -0.010193 -0.700000 -0.010193
v -0.004950 0.700000 -0.004950
v -0.005516 -0.700000 -0.013317
v -0.002679 0.700000 -0.006467
vt 0.506948 0.999989
vt 0.454139 0.000004
vt 0.506095 0.000000
vt 0.481716 0.999991
vt 0.406137 0.000017
vt 0.363319 0.999997
vt 0.369398 0.000004
vt 0.345477 0.999991
vt 0.321396 0.000000
vt 0.322166 0.999989
vt 0.269439 0.000004
vt 0.296935 0.999991
vt 0.221438 0.000017
vt 0.056814 0.000000
vt 0.036739 0.999992
vt 0.000000 0.999976
vt 0.097966 0.000012
vt 0.084741 1.000000
vt 0.136697 1.000000
vt 0.123197 0.000012
vt 0.184699 0.999992
vt 0.164349 0.000000
vt 0.221438 0.999976
vt 0.700744 0.999992
vt 0.690794 0.000000
vt 0.738796 0.000008
vt 0.677433 0.999988
vt 0.638838 0.000000
vt 0.652202 0.999988
vt 0.590836 0.000008
vt 0.855987 0.022322
vt 0.838146 0.029257
vt 0.748452 0.027877
vt 0.548100 0.999997
vt 0.554097 0.000004
vt 0.530259 0.999991
vt 0.980117 0.004378
vt 0.943378 0.018659
vt 0.758679 0.015818
vt 0.458406 0.999997
vt 0.273624 0.999997
vt 0.074655 0.000008
vt 0.146508 0.000008
vt 0.628891 0.999992
vt 0.738796 0.026075
vt 0.766293 0.020942
vt 0.738796 0.024124
vt 0.748452 0.022322
vt 0.789604 0.020196
vt 0.814835 0.020196
vt 0.838146 0.020942
vt 0.865643 0.024124
vt 0.865643 0.026075
vt 0.855987 0.027877
vt 0.814835 0.030004
vt 0.789604 0.030004
vt 0.766293 0.029257
vt 0.738796 0.012107
vt 0.738796 0.008089
vt 0.758679 0.004378
vt 0.795418 0.001537
vt 0.843420 0.000000
vt 0.895377 0.000000
vt 0.943378 0.001537
vt 1.000000 0.008089
vt 1.000000 0.012107
vt 0.980117 0.015818
vt 0.895376 0.020196
vt 0.843420 0.020196
vt 0.795418 0.018659
vn 0.0000 0.6677 -0.7445
vn 0.2862 -0.6637 -0.6910
vn 0.0000 -0.6637 -0.7479
vn 0.2849 0.6677 -0.6878
vn 0.5289 -0.6637 -0.5289
vn 0.5264 0.6677 -0.5264
vn 0.6910 -0.6637 -0.2862
vn 0.6878 0.6677 -0.2849
vn 0.7479 -0.6637 0.0000
vn 0.7444 0.6677 0.0000
vn 0.6910 -0.6637 0.2862
vn 0.6878 0.6677 0.2849
vn 0.5289 -0.6637 0.5289
vn 0.5264 0.6677 0.5264
vn 0.2862 -0.6637 0.6910
vn 0.0000 0.6677 0.7444
vn 0.0000 -0.6637 0.7479
vn -0.2862 -0.6637 0.6910
vn -0.2849 0.6677 0.6877
vn -0.5289 -0.6637 0.5289
vn -0.6878 0.6677 0.2849
vn -0.6910 -0.6637 0.2862
vn -0.7479 -0.6637 0.0000
vn -0.7444 0.6677 0.0000
vn -0.6910 -0.6637 -0.2862
vn -0.6878 0.6677 -0.2849
vn -0.5289 -0.6637 -0.5289
vn -0.5264 0.6677 0.5264
vn -0.5264 0.6677 -0.5264
vn -0.2862 -0.6637 -0.6910
vn -0.2849 0.6677 -0.6878
vn 0.2849 0.6677 0.6878
usemtl Material.001
s 1
f 2/1/1 3/2/2 1/3/3
f 4/4/4 5/5/5 3/2/2
f 6/6/6 7/7/7 5/5/5
f 8/8/8 9/9/9 7/7/7
f 10/10/10 11/11/11 9/9/9
f 12/12/12 13/13/13 11/11/11
f 14/14/14 15/15/15 13/16/13
f 15/15/15 18/17/16 17/18/17
f 18/17/16 19/19/18 17/18/17
f 20/20/19 21/21/20 19/19/18
f 21/21/20 24/22/21 23/23/22
f 24/24/21 25/25/23 23/26/22
f 26/27/24 27/28/25 25/25/23
f 28/29/26 29/30/27 27/28/25
f 22/31/28 14/32/14 6/33/6
f 30/34/29 31/35/30 29/30/27
f 32/36/31 1/3/3 31/35/30
f 15/37/15 23/38/22 31/39/30
f 2/1/1 4/4/4 3/2/2
f 4/4/4 6/40/6 5/5/5
f 6/6/6 8/8/8 7/7/7
f 8/8/8 10/10/10 9/9/9
f 10/10/10 12/12/12 11/11/11
f 12/12/12 14/41/14 13/13/13
f 14/14/14 16/42/32 15/15/15
f 15/15/15 16/42/32 18/17/16
f 18/17/16 20/20/19 19/19/18
f 20/20/19 22/43/28 21/21/20
f 21/21/20 22/43/28 24/22/21
f 24/24/21 26/27/24 25/25/23
f 26/27/24 28/29/26 27/28/25
f 28/29/26 30/44/29 29/30/27
f 6/33/6 4/45/4 30/46/29
f 4/45/4 2/47/1 30/46/29
f 2/47/1 32/48/31 30/46/29
f 30/46/29 28/49/26 26/50/24
f 26/50/24 24/51/21 22/31/28
f 22/31/28 20/52/19 18/53/16
f 18/53/16 16/54/32 22/31/28
f 16/54/32 14/32/14 22/31/28
f 14/32/14 12/55/12 10/56/10
f 10/56/10 8/57/8 14/32/14
f 8/57/8 6/33/6 14/32/14
f 30/46/29 26/50/24 6/33/6
f 26/50/24 22/31/28 6/33/6
f 30/34/29 32/36/31 31/35/30
f 32/36/31 2/1/1 1/3/3
f 31/39/30 1/58/3 3/59/2
f 3/59/2 5/60/5 7/61/7
f 7/61/7 9/62/9 15/37/15
f 9/62/9 11/63/11 15/37/15
f 11/63/11 13/64/13 15/37/15
f 15/37/15 17/65/17 19/66/18
f 19/66/18 21/67/20 23/38/22
f 23/38/22 25/68/23 27/69/25
f 27/69/25 29/70/27 31/39/30
f 31/39/30 3/59/2 15/37/15
f 3/59/2 7/61/7 15/37/15
f 15/37/15 19/66/18 23/38/22
f 23/38/22 27/69/25 31/39/30
